<?xml version="1.0" encoding="utf-8"?>
<!-- Generator: Adobe Illustrator 18.1.0, SVG Export Plug-In . SVG Version: 6.00 Build 0)  -->
<svg version="1.1" id="Layer_1" xmlns="http://www.w3.org/2000/svg" xmlns:xlink="http://www.w3.org/1999/xlink" x="0px" y="0px"
	 viewBox="256 346 100 100" enable-background="new 256 346 100 100" xml:space="preserve">
<g>
	<path fill="#231F20" d="M306,351c-24.8,0-45,20.2-45,45c0,24.8,20.2,45,45,45c24.8,0,45-20.2,45-45C351,371.2,330.8,351,306,351z
		 M306,430.2c-19,0-34.2-15.3-34.2-34.2c0-19,15.3-34.2,34.2-34.2c19,0,34.2,15.3,34.2,34.2C340.2,415,325,430.2,306,430.2z"/>
	<path fill="#231F20" d="M292.3,389.7l12.1,11.2c0.6,0.4,1.2,0.6,1.8,0.6c0.6,0,1.4-0.4,1.8-0.8l18-21.5c0.8-1,0.8-2.5-0.4-3.5
		c-1-0.8-2.5-0.8-3.5,0.4l-16.2,19.6l-10.2-9.4c-1-1-2.5-0.8-3.5,0.2C291.1,387.2,291.3,388.8,292.3,389.7L292.3,389.7z"/>
	<rect x="303.7" y="365.1" fill="#231F20" width="4.5" height="7.4"/>
	<rect x="303.7" y="419.5" fill="#231F20" width="4.5" height="7.4"/>
	<rect x="274.7" y="393.7" fill="#231F20" width="7.4" height="4.5"/>
	<rect x="329.7" y="393.7" fill="#231F20" width="7.4" height="4.5"/>
</g>
</svg>
