<?xml version="1.0" encoding="utf-8"?>
<!-- Generator: Adobe Illustrator 16.0.4, SVG Export Plug-In . SVG Version: 6.00 Build 0)  -->
<!DOCTYPE svg PUBLIC "-//W3C//DTD SVG 1.1//EN" "http://www.w3.org/Graphics/SVG/1.1/DTD/svg11.dtd">
<svg version="1.1" id="Layer_1" xmlns="http://www.w3.org/2000/svg" xmlns:xlink="http://www.w3.org/1999/xlink" x="0px" y="0px"
	 width="100px" height="100px" viewBox="0 0 100 100" enable-background="new 0 0 100 100" xml:space="preserve">
<g id="icomoon-ignore">
</g>
<path fill="#B7AC9D" d="M50,8C27.908,8,10,25.908,10,48s17.908,40,40,40s40-17.908,40-40S72.092,8,50,8z M50,80
	c-17.673,0-32-14.327-32-32s14.327-32,32-32s32,14.327,32,32S67.673,80,50,80z M52.666,45.333V34.667h10.667v-5.333H52.666V24
	h-5.333v5.333H36.667v21.333h10.667v10.666H36.667v5.334h10.667V72h5.333v-5.333h10.667V45.333H52.666z M47.333,45.333H42V34.667
	h5.333V45.333z M58,61.333h-5.334V50.667H58V61.333z"/>
</svg>
