<?xml version="1.0" encoding="utf-8"?>
<!-- Generator: Adobe Illustrator 18.1.0, SVG Export Plug-In . SVG Version: 6.00 Build 0)  -->
<svg version="1.1" id="Layer_1" xmlns="http://www.w3.org/2000/svg" xmlns:xlink="http://www.w3.org/1999/xlink" x="0px" y="0px"
	 viewBox="164 359.2 100 100" enable-background="new 164 359.2 100 100" xml:space="preserve">
<g>
	<path fill="#FFFFFF" d="M218.4,377.7v-1c-19.3,0-35,15.6-35,35c0,19.3,15.6,35,35,35c19.3,0,35-15.6,35-35c0-19.3-15.6-35-35-35
		V377.7v1c9.1,0,17.3,3.6,23.2,9.7c5.9,5.9,9.6,14.2,9.6,23.2c0,9.1-3.6,17.3-9.6,23.2c-5.9,5.9-14.2,9.6-23.2,9.6
		c-9.1,0-17.3-3.6-23.2-9.6s-9.6-14.2-9.7-23.2c0-9.1,3.6-17.3,9.7-23.2c5.9-5.9,14.2-9.7,23.2-9.7L218.4,377.7L218.4,377.7z"/>
	<path fill="#FFFFFF" d="M177.5,428.2c-6.8,0-12.3-5.5-12.3-12.3v-8.6c0-6.8,5.5-12.3,12.3-12.3c6.6-16.1,22.4-27.5,40.8-27.5
		s34.3,11.4,40.8,27.4c0,0,4.1,7.4,4.1,21.7c0,0.7-5.8-0.1-5.8-0.1c0-0.3,0.1-0.7,0.1-1c0.1-1.2,0.2-2.6,0.2-3.9
		c0-1.4-0.1-2.8-0.2-4.2c0-0.2-0.1-0.3-0.1-0.5c-0.1-1.1-0.3-2.4-0.5-3.5v-0.1c-0.5-2.6-1.4-5.1-2.4-7.5c-6-14-20-23.7-36.1-23.7
		s-30.1,9.8-36.1,23.7c-1,2.4-1.9,4.9-2.4,7.4v0.2c-0.2,1.1-0.4,2.3-0.5,3.5c0,0.2-0.1,0.3-0.1,0.5c-0.1,1.4-0.2,2.7-0.2,4.2
		c0,1.5,0.1,2.9,0.2,4.4c0,0.3,0.1,0.7,0.2,1c0.1,1.1,0.3,2.2,0.5,3.2c0.1,0.3,0.2,0.6,0.2,0.9c0.3,1,0.6,2.2,0.9,3.2
		c0.1,0.2,0.2,0.5,0.3,0.7c0.4,1.1,0.5,1.8,1,2.9L177.5,428.2z"/>
	<path fill="#FFFFFF" d="M247.1,394.2c-5.9-9.9-16.8-16.6-29.3-16.6c-18,0-32.7,14-34,31.7c-0.7,4.9,0.4,8.5,0.4,8.5
		s25.3,7.5,40.4-16.2l0.9-0.2c1.9,2.8,10.6,14.3,27.2,9.4C252.8,410.7,252.9,402.2,247.1,394.2"/>
	<path fill="#FFFFFF" d="M249.9,424c-3.2,7.6-15.4,7.1-20.9,7.6c-0.5-0.4-1.2-0.6-2-0.6h-8.9c-1.9,0-3.3,1.5-3.3,3.3
		s1.5,3.3,3.3,3.3h8.9c1.8,0,3.2-1.4,3.3-3.1c5.1-0.1,10.8-0.3,15.1-2.4C248.8,427.8,249.9,424,249.9,424"/>
</g>
</svg>
