<?xml version="1.0" encoding="utf-8"?>
<!-- Generator: Adobe Illustrator 16.0.4, SVG Export Plug-In . SVG Version: 6.00 Build 0)  -->
<!DOCTYPE svg PUBLIC "-//W3C//DTD SVG 1.1//EN" "http://www.w3.org/Graphics/SVG/1.1/DTD/svg11.dtd">
<svg version="1.1" id="Layer_1" xmlns="http://www.w3.org/2000/svg" xmlns:xlink="http://www.w3.org/1999/xlink" x="0px" y="0px"
	 width="100px" height="100px" viewBox="0 0 100 100" enable-background="new 0 0 100 100" xml:space="preserve">
<g id="icomoon-ignore">
</g>
<path fill="#B7AC9D" d="M48,7L8,32h80L48,7z M70.5,37l2.5,5v30h10V42l2.5-5H70.5z M50.5,37l2.5,5v30h10V42l2.5-5H50.5z M30.5,37
	l2.5,5v30h10V42l2.5-5H30.5z M10.5,37l2.5,5v30h10V42l2.5-5H10.5z M10.5,77L8,87h80l-2.5-10H10.5z M53,22c0,2.761-2.238,5-5,5
	c-2.761,0-5-2.239-5-5s2.239-5,5-5C50.762,17,53,19.239,53,22z"/>
</svg>
