<?xml version="1.0" encoding="utf-8"?>
<!-- Generator: Adobe Illustrator 16.0.0, SVG Export Plug-In . SVG Version: 6.00 Build 0)  -->
<!DOCTYPE svg PUBLIC "-//W3C//DTD SVG 1.1//EN" "http://www.w3.org/Graphics/SVG/1.1/DTD/svg11.dtd">
<svg version="1.1" id="Layer_1" xmlns="http://www.w3.org/2000/svg" xmlns:xlink="http://www.w3.org/1999/xlink" x="0px" y="0px"
	 width="32px" height="32px" viewBox="0 0 32 32" enable-background="new 0 0 32 32" xml:space="preserve">
<path fill="#1D597D" d="M3.71,0.314c-1.814,0-3.286,1.474-3.286,3.288v24.799c0,1.816,1.472,3.288,3.286,3.288h24.802
	c1.815,0,3.288-1.472,3.288-3.288V3.602c0-1.814-1.473-3.288-3.288-3.288H3.71z M16.127,9.806c3.397,0,6.148,2.751,6.148,6.147
	c0,3.395-2.751,6.148-6.148,6.148c-3.395,0-6.146-2.754-6.146-6.148C9.982,12.557,12.732,9.806,16.127,9.806z M28.212,26.929
	c0,0.782-0.555,1.106-1.403,1.106H5.35c-0.848,0-1.403-0.324-1.403-1.106s0-13.406,0-13.406h2.639
	c-0.181,0.746-0.28,1.522-0.28,2.324c0,5.407,4.383,9.792,9.792,9.792c5.408,0,9.791-4.386,9.791-9.792
	c0-0.801-0.099-1.578-0.279-2.324h2.604C28.212,13.522,28.212,26.146,28.212,26.929z M28.245,8.864c0,0.622-0.506,1.126-1.128,1.126
	h-3.921c-0.622,0-1.128-0.504-1.128-1.126V4.943c0-0.625,0.506-1.128,1.128-1.128h3.921c0.622,0,1.128,0.503,1.128,1.128V8.864z"/>
</svg>
