<?xml version="1.0" encoding="utf-8"?>
<!-- Generator: Adobe Illustrator 16.0.0, SVG Export Plug-In . SVG Version: 6.00 Build 0)  -->
<!DOCTYPE svg PUBLIC "-//W3C//DTD SVG 1.1//EN" "http://www.w3.org/Graphics/SVG/1.1/DTD/svg11.dtd">
<svg version="1.1" id="Layer_1" xmlns="http://www.w3.org/2000/svg" xmlns:xlink="http://www.w3.org/1999/xlink" x="0px" y="0px"
	 width="32px" height="32px" viewBox="0 0 32 32" enable-background="new 0 0 32 32" xml:space="preserve">
<g>
	<path fill="#01999A" d="M7.276,21.551c0,1.457,3.245,3.816,4.817,3.816c1.593,0,2.79-1.08,2.79-1.781v-5.094v-0.42l0.371,0.195
		c0.301,0.156,0.616,0.275,0.952,0.355c0.034,0.004,0.069,0.006,0.104,0.01c0.033,0.006,0.064,0.008,0.098,0.012v0.018
		c0.291,0.059,0.595,0.092,0.908,0.092c2.248,0,4.516-1.501,5.145-2.848c0.432-0.923,0.301-1.135,0.297-1.137h-0.012
		c-0.277,0-0.807,0.255-1.621,0.958c-0.547,0.468-1.199,0.706-1.953,0.706c-1.375,0-2.751-0.818-3.343-1.373
		c-0.851-0.795-1.58-1.253-2.788-1.253c-0.063,0-0.128,0-0.194,0.006c-0.151,0.006-0.327,0.006-0.515,0.006
		c-1.796,0-4.829-0.259-6.602-0.677c-0.991-0.235-2.283-1.006-3.421-1.688c-0.863-0.519-1.754-1.054-2.085-1.063
		c-0.178,0.524,0.107,0.911,1.007,2.005l0.28,0.339c1.019,1.254,5.556,3.043,5.604,3.063l0.161,0.061v0.172V21.551z"/>
	<path fill="#01999A" d="M14.83,8.167c0-1.821-1.48-3.311-3.296-3.311c-1.819,0-3.299,1.489-3.299,3.311
		c0,1.828,1.479,3.315,3.299,3.315C13.349,11.482,14.83,9.995,14.83,8.167z"/>
	<path fill="#01999A" d="M31.361,11.94c0.48-0.923,0.523-1.45,0.416-1.626c-0.014-0.026-0.039-0.057-0.115-0.057
		c-0.172,0-0.514,0.158-0.898,0.593c-1.135,1.262-5.791,2.802-6.492,2.802h-5.074c-1.383,0-2.789,0.384-2.789,0.766v0.776
		c0.662,0.474,1.71,0.983,2.763,0.983c0.625,0,1.246-0.177,1.785-0.643c0.781-0.668,1.398-1.025,1.754-1.025
		c0.406,0,0.457,0.477-0.02,1.503c-0.059,0.126-0.133,0.248-0.213,0.372c0.605-0.178,0.768,0.266,0.213,1.461
		c-0.77,1.645-3.668,3.385-6.283,2.898v2.842c0,0.693,1.05,2.607,4.429,2.607c3.359,0,4.195-4.064,4.195-4.643V16.3l0.137-0.072
		c0.541-0.285,1.096-0.547,1.631-0.797C28.752,14.508,30.441,13.715,31.361,11.94z"/>
	<path fill="#01999A" d="M17.594,8.167c0,1.828,1.479,3.315,3.295,3.315c1.822,0,3.299-1.487,3.299-3.315
		c0-1.821-1.477-3.311-3.299-3.311C19.072,4.856,17.594,6.346,17.594,8.167z"/>
</g>
</svg>
