<?xml version="1.0" encoding="utf-8"?>
<!-- Generator: Adobe Illustrator 16.0.0, SVG Export Plug-In . SVG Version: 6.00 Build 0)  -->
<!DOCTYPE svg PUBLIC "-//W3C//DTD SVG 1.1//EN" "http://www.w3.org/Graphics/SVG/1.1/DTD/svg11.dtd">
<svg version="1.1" id="Layer_1" xmlns="http://www.w3.org/2000/svg" xmlns:xlink="http://www.w3.org/1999/xlink" x="0px" y="0px"
	 width="32px" height="32px" viewBox="0 0 32 32" enable-background="new 0 0 32 32" xml:space="preserve">
<path fill="#67B7E6" d="M25.36,21.494c4.125-5.292,6.249-9.459,6.395-12.505c0.191-4.074-1.335-6.159-4.566-6.251
	c-4.359-0.141-7.307,2.295-8.851,7.304c0.795-0.326,1.57-0.492,2.32-0.492c1.588,0,2.293,0.889,2.106,2.673
	c-0.095,1.075-0.798,2.643-2.106,4.705c-1.315,2.063-2.296,3.093-2.947,3.093c-0.849,0-1.62-1.594-2.324-4.779
	c-0.237-0.936-0.656-3.324-1.26-7.166c-0.568-3.559-2.067-5.22-4.501-4.986c-1.028,0.093-2.574,1.03-4.63,2.811
	C3.491,7.259,1.971,8.615,0.424,9.977l1.473,1.895c1.407-0.986,2.233-1.473,2.457-1.473c1.08,0,2.089,1.685,3.028,5.051
	c0.837,3.097,1.682,6.188,2.529,9.276c1.259,3.368,2.81,5.059,4.633,5.059C17.491,29.784,21.104,27.021,25.36,21.494z"/>
</svg>
