<?xml version="1.0" encoding="utf-8"?>
<!-- Generator: Adobe Illustrator 16.0.0, SVG Export Plug-In . SVG Version: 6.00 Build 0)  -->
<!DOCTYPE svg PUBLIC "-//W3C//DTD SVG 1.1//EN" "http://www.w3.org/Graphics/SVG/1.1/DTD/svg11.dtd">
<svg version="1.1" id="Layer_1" xmlns="http://www.w3.org/2000/svg" xmlns:xlink="http://www.w3.org/1999/xlink" x="0px" y="0px"
	 width="32px" height="32px" viewBox="0 0 32 32" enable-background="new 0 0 32 32" xml:space="preserve">
<g>
	<path fill="#00B48A" d="M14.369,31.476c1.116,0.668,2.079,0.636,3.1,0.062c1.604-0.911,6.417-5.724,9.086-11.359
		c1.119-0.004,2.466-0.134,3.805-0.434v-3.795c-0.82,0.188-1.616,0.273-2.328,0.273c-4.021,0-7.118-2.81-7.118-7.693
		c0-2.393,0.925-3.639,2.235-3.639c1.242,0,2.074,1.119,2.074,3.384c0,1.289-0.348,2.701-0.601,3.537c0,0,1.24,2.159,4.626,1.499
		c0.722-1.6,1.111-3.668,1.111-5.481c0-4.884-2.489-7.724-7.051-7.724c-4.693,0-7.438,3.606-7.438,8.36
		c0,4.713,2.202,8.755,5.834,10.596c-1.528,3.055-3.472,5.749-5.496,7.772C12.53,22.39,9.208,16.462,7.846,4.89H2.42
		C4.926,24.161,12.393,30.298,14.369,31.476z"/>
</g>
</svg>
