<?xml version="1.0" encoding="utf-8"?>
<!-- Generator: Adobe Illustrator 16.0.0, SVG Export Plug-In . SVG Version: 6.00 Build 0)  -->
<!DOCTYPE svg PUBLIC "-//W3C//DTD SVG 1.1//EN" "http://www.w3.org/Graphics/SVG/1.1/DTD/svg11.dtd">
<svg version="1.1" id="Layer_1" xmlns="http://www.w3.org/2000/svg" xmlns:xlink="http://www.w3.org/1999/xlink" x="0px" y="0px"
	 width="32px" height="32px" viewBox="0 0 32 32" enable-background="new 0 0 32 32" xml:space="preserve">
<path fill="#E22D26" d="M26.989,4.975c0,0-7.826-0.174-10.949-0.174h-0.08c-3.123,0-10.948,0.174-10.948,0.174
	c-2.616,0.184-4.35,2.018-4.685,4.683c0,0-0.349,3.445-0.349,6.257c0,2.81,0.349,6.254,0.349,6.254
	c0.271,2.68,1.898,4.502,4.685,4.686c0,0,6.376,0.345,10.948,0.345h0.08c4.572,0,10.949-0.345,10.949-0.345
	c2.785-0.184,4.41-2.006,4.686-4.686c0,0,0.347-3.444,0.347-6.254c0-2.812-0.347-6.257-0.347-6.257
	C31.34,6.993,29.604,5.159,26.989,4.975z M20.251,16.493l-7.485,3.924v-8.943l0.521,0.271l8.009,4.2L20.251,16.493z"/>
</svg>
