<?xml version="1.0" encoding="utf-8"?>
<!-- Generator: Adobe Illustrator 16.0.0, SVG Export Plug-In . SVG Version: 6.00 Build 0)  -->
<!DOCTYPE svg PUBLIC "-//W3C//DTD SVG 1.1//EN" "http://www.w3.org/Graphics/SVG/1.1/DTD/svg11.dtd">
<svg version="1.1" id="Layer_1" xmlns="http://www.w3.org/2000/svg" xmlns:xlink="http://www.w3.org/1999/xlink" x="0px" y="0px"
	 width="32px" height="32px" viewBox="0 0 32 32" enable-background="new 0 0 32 32" xml:space="preserve">
<g>
	<path fill="#E22D26" d="M25.445,22.389c0-0.453-0.37-0.823-0.823-0.823H24.51c-0.451,0-0.822,0.37-0.822,0.823l-0.006,1.02h1.744
		L25.445,22.389z"/>
	<path fill="#E22D26" d="M3,18.445v9.443c0,2.264,1.95,4.117,4.338,4.117h17.837c2.383,0,4.338-1.854,4.338-4.117v-9.443
		c0-2.262-1.955-4.117-4.338-4.117H7.338C4.95,14.329,3,16.183,3,18.445z M22.164,23.313c0-0.789,0.079-1.41,0.235-1.868
		c0.157-0.453,0.424-0.793,0.775-1.05c1.116-0.811,3.326-0.557,3.552,1.027c0.072,0.5,0.094,1.377,0.094,2.252v1.201h-3.164v1.102
		v0.853v0.085c0,0.415,0.338,0.754,0.754,0.754h0.272c0.414,0,0.755-0.339,0.755-0.754V26.14c0-0.07,0.001-0.134,0.004-0.187
		l1.383-0.011c0.63,3.771-4.66,4.391-4.66,0.007V23.313z M16.26,17.494l1.841-0.004l-0.007,3.289
		c1.699-1.362,2.954-0.354,2.954,1.33l0.003,4.419c0.005,2.146-1.212,3.368-3.148,1.581l-0.138,0.707l-1.517,0.021L16.26,17.494z
		 M12.219,25.798c0,0.729-0.04,1.152,0.004,1.295c0.263,0.805,0.938,0.367,1.086-0.044c0.047-0.137,0.003-0.521,0.003-1.289v-5.31
		h1.843v8.457h-1.479v-1.096c-0.396,0.858-1.986,1.553-2.816,0.951c-0.445-0.323-0.428-0.887-0.472-1.369
		c-0.025-0.272-0.006-0.874-0.006-1.682l-0.006-5.262h1.834L12.219,25.798z M10.738,18.968H8.526v9.946H6.683v-9.976l-1.839-0.006
		v-1.448l5.894,0.01V18.968z"/>
	<path fill="#E22D26" d="M19.519,3.457v5.93c0,0.757,0.015,1.258,0.036,1.515c0.023,0.253,0.081,0.498,0.178,0.735
		c0.096,0.231,0.242,0.418,0.442,0.561c0.199,0.143,0.451,0.212,0.754,0.212c0.266,0,0.503-0.072,0.708-0.221
		c0.204-0.149,0.375-0.371,0.515-0.666l-0.033,0.729h2.054V3.457h-1.618v6.842c0,0.371-0.303,0.675-0.672,0.675
		c-0.371,0-0.675-0.304-0.675-0.675V3.457H19.519z"/>
	<path fill="#E22D26" d="M18.875,27.518c0.445,0,0.809-0.301,0.809-0.666v-4.963c0-0.368-0.363-0.67-0.809-0.67
		c-0.441,0-0.804,0.302-0.804,0.67v4.963C18.071,27.217,18.434,27.518,18.875,27.518z"/>
	<path fill="#E22D26" d="M17.874,4.112c-0.183-0.294-0.446-0.535-0.788-0.719c-0.342-0.184-0.748-0.279-1.223-0.279
		c-0.567,0-1.029,0.146-1.394,0.435c-0.365,0.285-0.615,0.668-0.757,1.14c-0.139,0.476-0.209,1.134-0.209,1.977v2.332
		c0,0.77,0.038,1.35,0.117,1.733c0.076,0.383,0.203,0.716,0.385,0.986c0.179,0.272,0.433,0.475,0.757,0.611
		c0.327,0.136,0.721,0.2,1.189,0.2c0.418,0,0.789-0.076,1.115-0.237c0.32-0.155,0.585-0.403,0.791-0.729
		c0.207-0.333,0.342-0.688,0.404-1.068c0.063-0.384,0.098-0.982,0.098-1.799V6.469c0-0.643-0.035-1.121-0.104-1.438
		C18.187,4.717,18.06,4.411,17.874,4.112z M16.747,10.16c0,0.498-0.367,0.906-0.815,0.906s-0.816-0.408-0.816-0.906V5.481
		c0-0.498,0.368-0.906,0.816-0.906s0.815,0.409,0.815,0.906V10.16z"/>
	<polygon fill="#E22D26" points="9.426,12.526 11.366,12.526 11.368,5.779 13.66,0.004 11.539,0.004 10.319,4.293 9.085,-0.009 
		6.987,-0.009 9.422,5.782 	"/>
</g>
</svg>
